<svg width="78" height="79" viewBox="0 0 78 79" fill="none" xmlns="http://www.w3.org/2000/svg">
<path fill-rule="evenodd" clip-rule="evenodd" d="M38.9008 76.231C59.08 76.231 75.439 59.872 75.439 39.6928C75.439 19.5131 59.08 3.1543 38.9008 3.1543C18.7211 3.1543 2.3623 19.5131 2.3623 39.6928C2.3623 59.872 18.7211 76.231 38.9008 76.231ZM65.791 35.9012C62.384 39.8853 57.585 42.3664 52.268 42.3664C41.9318 42.3664 33.5529 32.99 33.5529 21.4236C33.5529 18.5137 34.0832 15.7424 35.0417 13.2241C22.0899 15.1912 12.165 26.3743 12.165 39.8754C12.165 43.8146 13.0099 47.5565 14.5284 50.9297C16.0688 49.4967 18.2336 48.6049 20.6313 48.6049C25.307 48.6049 29.0975 51.9964 29.0975 56.18C29.0975 58.989 27.3884 61.441 24.8498 62.749C28.9891 65.338 33.8815 66.834 39.1233 66.834C54.012 66.834 66.082 54.764 66.082 39.8754C66.082 38.5252 65.982 37.1981 65.791 35.9012Z" fill="white"/>
<mask id="mask0_1_2" style="mask-type:luminance" maskUnits="userSpaceOnUse" x="2" y="3" width="74" height="74">
<path fill-rule="evenodd" clip-rule="evenodd" d="M38.9008 76.231C59.08 76.231 75.439 59.872 75.439 39.6928C75.439 19.5131 59.08 3.1543 38.9008 3.1543C18.7211 3.1543 2.3623 19.5131 2.3623 39.6928C2.3623 59.872 18.7211 76.231 38.9008 76.231ZM65.791 35.9012C62.384 39.8853 57.585 42.3664 52.268 42.3664C41.9318 42.3664 33.5529 32.99 33.5529 21.4236C33.5529 18.5137 34.0832 15.7424 35.0417 13.2241C22.0899 15.1912 12.165 26.3743 12.165 39.8754C12.165 43.8146 13.0099 47.5565 14.5284 50.9297C16.0688 49.4967 18.2336 48.6049 20.6313 48.6049C25.307 48.6049 29.0975 51.9964 29.0975 56.18C29.0975 58.989 27.3884 61.441 24.8498 62.749C28.9891 65.338 33.8815 66.834 39.1233 66.834C54.012 66.834 66.082 54.764 66.082 39.8754C66.082 38.5252 65.982 37.1981 65.791 35.9012Z" fill="white"/>
</mask>
<g mask="url(#mask0_1_2)">
<path d="M65.791 35.9012L68.435 35.5104L67.577 29.6988L63.759 34.1636L65.791 35.9012ZM35.0417 13.2241L37.5404 14.1751L39.1701 9.89289L34.6402 10.5809L35.0417 13.2241ZM14.5284 50.9297L12.0905 52.0272L13.6205 55.426L16.3495 52.8872L14.5284 50.9297ZM24.8498 62.749L23.6253 60.372L19.4481 62.525L23.4323 65.016L24.8498 62.749ZM72.766 39.6928C72.766 58.396 57.604 73.558 38.9008 73.558V78.905C60.557 78.905 78.113 61.349 78.113 39.6928H72.766ZM38.9008 5.8278C57.604 5.8278 72.766 20.9897 72.766 39.6928H78.113C78.113 18.0366 60.557 0.480797 38.9008 0.480797V5.8278ZM5.03591 39.6928C5.03591 20.9897 20.1977 5.8278 38.9008 5.8278V0.480797C17.2446 0.480797 -0.311188 18.0366 -0.311188 39.6928H5.03591ZM38.9008 73.558C20.1977 73.558 5.03591 58.396 5.03591 39.6928H-0.311188C-0.311188 61.349 17.2446 78.905 38.9008 78.905V73.558ZM52.268 45.04C58.453 45.04 63.967 42.1478 67.823 37.6388L63.759 34.1636C60.801 37.6227 56.717 39.6929 52.268 39.6929V45.04ZM30.8793 21.4236C30.8793 34.1759 40.1804 45.04 52.268 45.04V39.6929C43.6832 39.6929 36.2264 31.8042 36.2264 21.4236H30.8793ZM32.543 12.2731C31.4692 15.0945 30.8793 18.1881 30.8793 21.4236H36.2264C36.2264 18.8393 36.6973 16.3902 37.5404 14.1751L32.543 12.2731ZM14.8386 39.8754C14.8386 27.7157 23.7781 17.639 35.4431 15.8674L34.6402 10.5809C20.4016 12.7435 9.49151 25.0329 9.49151 39.8754H14.8386ZM16.9663 49.8323C15.6001 46.7973 14.8386 43.4289 14.8386 39.8754H9.49151C9.49151 44.2004 10.4198 48.3157 12.0905 52.0272L16.9663 49.8323ZM20.6313 45.9314C17.5719 45.9314 14.7526 47.0696 12.7073 48.9723L16.3495 52.8872C17.385 51.9238 18.8954 51.2785 20.6313 51.2785V45.9314ZM31.771 56.18C31.771 50.248 26.4962 45.9314 20.6313 45.9314V51.2785C24.1179 51.2785 26.424 53.745 26.424 56.18H31.771ZM26.0742 65.126C29.365 63.43 31.771 60.136 31.771 56.18H26.424C26.424 57.842 25.4118 59.452 23.6253 60.372L26.0742 65.126ZM39.1233 64.16C34.3972 64.16 29.994 62.813 26.2673 60.482L23.4323 65.016C27.9842 67.862 33.3657 69.507 39.1233 69.507V64.16ZM63.408 39.8754C63.408 53.287 52.535 64.16 39.1233 64.16V69.507C55.488 69.507 68.755 56.241 68.755 39.8754H63.408ZM63.146 36.2919C63.318 37.4599 63.408 38.6564 63.408 39.8754H68.755C68.755 38.3939 68.646 36.9363 68.435 35.5104L63.146 36.2919Z" fill="white"/>
</g>
</svg>
