<svg width="324" height="79" viewBox="0 0 324 79" fill="none" xmlns="http://www.w3.org/2000/svg">
<g clip-path="url(#clip0_1_2)">
<path d="M142.648 14.0664C143.767 15.2415 145.474 15.8291 147.768 15.8291C150.062 15.8291 151.741 15.2415 152.804 14.0664C153.868 12.8353 154.399 11.3244 154.399 9.5337C154.399 7.631 153.868 6.0922 152.804 4.917C151.741 3.7419 150.062 3.1543 147.768 3.1543C145.474 3.1543 143.767 3.7419 142.648 4.917C141.584 6.0922 141.053 7.631 141.053 9.5337C141.053 11.3244 141.584 12.8353 142.648 14.0664Z" fill="white"/>
<path d="M89.362 21.2851L103.632 66.864H122.35L134.689 21.2851H123.442L114.157 57.295H112.175L101.366 21.2851H89.362Z" fill="white"/>
<path d="M180.94 68.291C174.673 68.291 169.748 66.976 166.167 64.346C162.642 61.66 160.795 57.966 160.627 53.266H171.119C171.287 54.833 172.155 56.26 173.721 57.547C175.288 58.834 177.751 59.477 181.108 59.477C183.906 59.477 186.116 58.974 187.739 57.966C189.418 56.959 190.257 55.588 190.257 53.853C190.257 52.3425 189.614 51.1394 188.327 50.244C187.096 49.3487 184.969 48.7611 181.947 48.4813L177.918 48.0616C172.826 47.502 168.909 46.0471 166.167 43.6968C163.425 41.3465 162.054 38.2128 162.054 34.2956C162.054 31.1619 162.837 28.5318 164.404 26.4054C165.971 24.2789 168.126 22.6841 170.868 21.6209C173.665 20.5017 176.855 19.9421 180.437 19.9421C186.032 19.9421 190.565 21.1732 194.035 23.6354C197.504 26.0976 199.323 29.707 199.491 34.4635H188.998C188.886 32.8967 188.103 31.5536 186.648 30.4344C185.193 29.3153 183.095 28.7557 180.353 28.7557C177.89 28.7557 175.988 29.2313 174.645 30.1826C173.302 31.1339 172.63 32.365 172.63 33.8759C172.63 35.3309 173.162 36.4501 174.225 37.2335C175.344 38.0169 177.135 38.5485 179.597 38.8283L183.626 39.248C188.998 39.8076 193.195 41.2905 196.217 43.6968C199.295 46.103 200.834 49.3487 200.834 53.434C200.834 56.456 199.994 59.086 198.316 61.324C196.693 63.506 194.398 65.213 191.433 66.444C188.467 67.675 184.969 68.291 180.94 68.291Z" fill="white"/>
<path d="M207.618 14.0664C208.738 15.2415 210.444 15.8291 212.739 15.8291C215.033 15.8291 216.712 15.2415 217.775 14.0664C218.838 12.8353 219.37 11.3244 219.37 9.5337C219.37 7.631 218.838 6.0922 217.775 4.917C216.712 3.7419 215.033 3.1543 212.739 3.1543C210.444 3.1543 208.738 3.7419 207.618 4.917C206.555 6.0922 206.024 7.631 206.024 9.5337C206.024 11.3244 206.555 12.8353 207.618 14.0664Z" fill="white"/>
<path fill-rule="evenodd" clip-rule="evenodd" d="M251.283 68.459C247.254 68.459 243.701 67.815 240.623 66.528C237.545 65.241 234.943 63.506 232.816 61.324C230.69 59.086 229.067 56.567 227.948 53.769C226.885 50.9715 226.353 48.0616 226.353 45.0398V43.2771C226.353 40.1434 226.913 37.1775 228.032 34.3796C229.207 31.5257 230.858 29.0075 232.984 26.8251C235.167 24.5867 237.797 22.852 240.875 21.6209C243.952 20.3338 247.422 19.6903 251.283 19.6903C255.144 19.6903 258.614 20.3338 261.691 21.6209C264.769 22.852 267.371 24.5867 269.498 26.8251C271.68 29.0075 273.331 31.5257 274.45 34.3796C275.569 37.1775 276.129 40.1434 276.129 43.2771V45.0398C276.129 48.0616 275.569 50.9715 274.45 53.769C273.387 56.567 271.792 59.086 269.666 61.324C267.539 63.506 264.937 65.241 261.859 66.528C258.782 67.815 255.256 68.459 251.283 68.459ZM251.283 58.47C254.137 58.47 256.543 57.854 258.502 56.623C260.46 55.336 261.943 53.63 262.951 51.5031C263.958 49.3207 264.461 46.8585 264.461 44.1165C264.461 41.3185 263.93 38.8563 262.867 36.7299C261.859 34.5475 260.348 32.8407 258.334 31.6096C256.375 30.3225 254.025 29.679 251.283 29.679C248.541 29.679 246.163 30.3225 244.148 31.6096C242.19 32.8407 240.679 34.5475 239.615 36.7299C238.552 38.8563 238.021 41.3185 238.021 44.1165C238.021 46.8585 238.524 49.3207 239.532 51.5031C240.595 53.63 242.106 55.336 244.064 56.623C246.023 57.854 248.429 58.47 251.283 58.47Z" fill="white"/>
<path d="M292.389 29.2593C291.988 30.262 291.652 31.3479 291.382 32.517V21.2851H282.148V66.864H293.816V40.0874C293.816 37.1216 294.683 34.7713 296.418 33.0366C298.209 31.2459 300.531 30.3505 303.385 30.3505C306.183 30.3505 308.365 31.2179 309.932 32.9526C311.555 34.6874 312.366 36.9537 312.366 39.7517V66.864H324.034V40.7589C324.034 33.82 322.635 28.6158 319.837 25.1463C317.039 21.6209 312.926 19.8581 307.498 19.8581H306.994C303.357 19.8581 300.307 20.6416 297.845 22.2084C295.439 23.7753 293.62 26.1256 292.389 29.2593Z" fill="white"/>
<path d="M143.487 30.0148V66.864H155.155V21.2851H137.108V30.0148H143.487Z" fill="white"/>
<path d="M208.458 30.0148V66.864H220.125V21.2851H202.078V30.0148H208.458Z" fill="white"/>
<path fill-rule="evenodd" clip-rule="evenodd" d="M38.9008 76.231C59.08 76.231 75.439 59.872 75.439 39.6928C75.439 19.5131 59.08 3.1543 38.9008 3.1543C18.7211 3.1543 2.3623 19.5131 2.3623 39.6928C2.3623 59.872 18.7211 76.231 38.9008 76.231ZM65.791 35.9012C62.384 39.8853 57.585 42.3664 52.268 42.3664C41.9318 42.3664 33.5529 32.99 33.5529 21.4236C33.5529 18.5137 34.0832 15.7424 35.0417 13.2241C22.0899 15.1912 12.165 26.3743 12.165 39.8754C12.165 43.8146 13.0099 47.5565 14.5284 50.9297C16.0688 49.4967 18.2336 48.6049 20.6313 48.6049C25.307 48.6049 29.0975 51.9964 29.0975 56.18C29.0975 58.989 27.3884 61.441 24.8498 62.749C28.9891 65.338 33.8815 66.834 39.1233 66.834C54.012 66.834 66.082 54.764 66.082 39.8754C66.082 38.5252 65.982 37.1981 65.791 35.9012Z" fill="white"/>
<mask id="mask0_1_2" style="mask-type:luminance" maskUnits="userSpaceOnUse" x="2" y="3" width="74" height="74">
<path fill-rule="evenodd" clip-rule="evenodd" d="M38.9008 76.231C59.08 76.231 75.439 59.872 75.439 39.6928C75.439 19.5131 59.08 3.1543 38.9008 3.1543C18.7211 3.1543 2.3623 19.5131 2.3623 39.6928C2.3623 59.872 18.7211 76.231 38.9008 76.231ZM65.791 35.9012C62.384 39.8853 57.585 42.3664 52.268 42.3664C41.9318 42.3664 33.5529 32.99 33.5529 21.4236C33.5529 18.5137 34.0832 15.7424 35.0417 13.2241C22.0899 15.1912 12.165 26.3743 12.165 39.8754C12.165 43.8146 13.0099 47.5565 14.5284 50.9297C16.0688 49.4967 18.2336 48.6049 20.6313 48.6049C25.307 48.6049 29.0975 51.9964 29.0975 56.18C29.0975 58.989 27.3884 61.441 24.8498 62.749C28.9891 65.338 33.8815 66.834 39.1233 66.834C54.012 66.834 66.082 54.764 66.082 39.8754C66.082 38.5252 65.982 37.1981 65.791 35.9012Z" fill="white"/>
</mask>
<g mask="url(#mask0_1_2)">
<path d="M65.791 35.9012L68.435 35.5104L67.577 29.6988L63.759 34.1636L65.791 35.9012ZM35.0417 13.2241L37.5404 14.1751L39.1701 9.8929L34.6402 10.5809L35.0417 13.2241ZM14.5284 50.9297L12.0905 52.0272L13.6205 55.426L16.3495 52.8872L14.5284 50.9297ZM24.8498 62.749L23.6253 60.372L19.4481 62.525L23.4323 65.016L24.8498 62.749ZM72.766 39.6928C72.766 58.396 57.604 73.558 38.9008 73.558V78.905C60.557 78.905 78.113 61.349 78.113 39.6928H72.766ZM38.9008 5.8278C57.604 5.8278 72.766 20.9897 72.766 39.6928H78.113C78.113 18.0366 60.557 0.480801 38.9008 0.480801V5.8278ZM5.03591 39.6928C5.03591 20.9897 20.1977 5.8278 38.9008 5.8278V0.480801C17.2446 0.480801 -0.311188 18.0366 -0.311188 39.6928H5.03591ZM38.9008 73.558C20.1977 73.558 5.03591 58.396 5.03591 39.6928H-0.311188C-0.311188 61.349 17.2446 78.905 38.9008 78.905V73.558ZM52.268 45.04C58.453 45.04 63.967 42.1478 67.823 37.6388L63.759 34.1636C60.801 37.6227 56.717 39.6929 52.268 39.6929V45.04ZM30.8793 21.4236C30.8793 34.1759 40.1804 45.04 52.268 45.04V39.6929C43.6832 39.6929 36.2264 31.8042 36.2264 21.4236H30.8793ZM32.543 12.2731C31.4692 15.0945 30.8793 18.1881 30.8793 21.4236H36.2264C36.2264 18.8393 36.6973 16.3902 37.5404 14.1751L32.543 12.2731ZM14.8386 39.8754C14.8386 27.7157 23.7781 17.639 35.4431 15.8674L34.6402 10.5809C20.4016 12.7435 9.49151 25.0329 9.49151 39.8754H14.8386ZM16.9663 49.8323C15.6001 46.7973 14.8386 43.4289 14.8386 39.8754H9.49151C9.49151 44.2004 10.4198 48.3157 12.0905 52.0272L16.9663 49.8323ZM20.6313 45.9314C17.5719 45.9314 14.7526 47.0696 12.7073 48.9723L16.3495 52.8872C17.385 51.9238 18.8954 51.2785 20.6313 51.2785V45.9314ZM31.771 56.18C31.771 50.248 26.4962 45.9314 20.6313 45.9314V51.2785C24.1179 51.2785 26.424 53.745 26.424 56.18H31.771ZM26.0742 65.126C29.365 63.43 31.771 60.136 31.771 56.18H26.424C26.424 57.842 25.4118 59.452 23.6253 60.372L26.0742 65.126ZM39.1233 64.16C34.3972 64.16 29.994 62.813 26.2673 60.482L23.4323 65.016C27.9842 67.862 33.3657 69.507 39.1233 69.507V64.16ZM63.408 39.8754C63.408 53.287 52.535 64.16 39.1233 64.16V69.507C55.488 69.507 68.755 56.241 68.755 39.8754H63.408ZM63.146 36.2919C63.318 37.4599 63.408 38.6564 63.408 39.8754H68.755C68.755 38.3939 68.646 36.9363 68.435 35.5104L63.146 36.2919Z" fill="white"/>
</g>
</g>
<defs>
<clipPath id="clip0_1_2">
<rect width="324" height="79" fill="white"/>
</clipPath>
</defs>
</svg>
